<svg width="1060" height="1060" viewBox="0 0 1060 1060" fill="none" xmlns="http://www.w3.org/2000/svg">
<circle cx="530" cy="530" r="530" fill="#4A90E2"/>
<g filter="url(#filter0_d_0_1)">
<path d="M249.531 758.281C250.573 753.073 257.083 748.125 269.062 743.438C281.042 738.75 295.885 733.802 313.594 728.594C331.302 723.385 350.833 717.656 372.188 711.406C393.542 705.156 414.115 698.125 433.906 690.312C453.698 682.5 471.667 673.646 487.812 663.75C504.479 653.854 516.719 642.396 524.531 629.375C524.531 621.562 519.323 615.573 508.906 611.406C499.01 607.24 485.469 603.854 468.281 601.25C451.615 598.125 432.344 595.781 410.469 594.219C389.115 592.135 366.979 589.531 344.062 586.406C321.667 582.76 299.531 578.594 277.656 573.906C256.302 568.698 237.031 561.667 219.844 552.812C203.177 543.438 189.635 531.719 179.219 517.656C169.323 503.594 164.375 486.406 164.375 466.094C164.375 445.781 168.802 425.729 177.656 405.938C186.51 385.625 198.229 366.094 212.812 347.344C227.917 328.594 244.844 311.146 263.594 295C282.865 278.854 302.917 264.792 323.75 252.812C344.583 240.833 365.156 231.458 385.469 224.688C406.302 217.917 425.573 214.531 443.281 214.531C447.969 214.531 452.917 214.531 458.125 214.531C463.333 214.01 467.76 214.271 471.406 215.312C475.573 215.833 478.958 217.656 481.562 220.781C484.167 223.906 485.469 228.594 485.469 234.844C485.469 249.948 480.521 260.885 470.625 267.656C460.729 273.906 448.75 277.031 434.688 277.031L404.219 255.156C392.24 255.156 378.958 258.542 364.375 265.312C350.312 272.083 335.729 281.198 320.625 292.656C306.042 303.594 291.719 316.354 277.656 330.938C263.594 345.521 251.094 360.625 240.156 376.25C229.74 391.875 221.146 407.5 214.375 423.125C208.125 438.75 205 452.812 205 465.312C205 483.542 209.948 498.385 219.844 509.844C230.26 520.781 243.802 529.635 260.469 536.406C277.656 542.656 297.188 547.344 319.062 550.469C340.938 553.594 363.073 556.198 385.469 558.281C407.865 560.365 430 562.448 451.875 564.531C473.75 566.094 493.021 569.219 509.688 573.906C526.875 578.594 540.417 584.844 550.312 592.656C560.729 600.469 565.938 611.146 565.938 624.688C571.667 633.021 570.365 642.656 562.031 653.594C554.219 664.01 541.719 674.688 524.531 685.625C507.865 696.042 487.812 706.719 464.375 717.656C441.458 728.073 417.76 737.708 393.281 746.562C368.802 754.896 345.104 762.188 322.188 768.438C299.271 774.167 279.74 777.812 263.594 779.375C258.906 779.375 254.74 777.812 251.094 774.688C247.969 771.562 247.448 766.094 249.531 758.281Z" fill="white"/>
</g>
<g filter="url(#filter1_d_0_1)">
<path d="M657.762 407.387C643.178 407.387 628.367 408.754 613.328 411.488C598.745 414.223 584.161 417.413 569.578 421.059C554.995 424.249 540.411 427.211 525.828 429.945C511.245 432.68 496.434 434.047 481.395 434.047C476.837 434.047 472.052 433.591 467.039 432.68C462.482 431.312 460.203 427.211 460.203 420.375C460.203 415.818 462.026 411.26 465.672 406.703C469.773 401.69 474.103 398.956 478.66 398.5L661.863 371.84C662.319 370.017 663.003 367.283 663.914 363.637C664.826 359.535 665.965 355.661 667.332 352.016C669.155 347.914 671.434 344.496 674.168 341.762C676.902 338.572 680.092 336.977 683.738 336.977C689.207 336.977 693.536 338.344 696.727 341.078C699.917 343.812 702.651 347.003 704.93 350.648C707.208 353.839 709.259 356.801 711.082 359.535C712.905 362.27 715.184 363.637 717.918 363.637H723.387C727.944 363.181 735.236 362.497 745.262 361.586C755.288 360.219 766.681 358.852 779.441 357.484C792.658 356.117 806.557 354.75 821.141 353.383C835.724 351.56 849.624 350.193 862.84 349.281C876.056 347.914 887.677 346.775 897.703 345.863C907.729 344.496 915.021 343.357 919.578 342.445C920.945 342.445 924.135 342.445 929.148 342.445C934.617 341.99 938.491 341.762 940.77 341.762C940.77 350.421 935.984 357.712 926.414 363.637C917.299 369.105 905.451 373.891 890.867 377.992C876.74 381.638 860.789 384.6 843.016 386.879C825.698 388.702 808.608 390.297 791.746 391.664C775.34 393.031 760.073 394.171 745.945 395.082C732.273 395.993 721.792 397.133 714.5 398.5C712.677 430.857 713.361 464.581 716.551 499.672C720.197 534.763 724.526 570.082 729.539 605.629C735.008 641.176 740.021 676.495 744.578 711.586C749.135 746.677 751.414 780.173 751.414 812.074C753.237 818.454 753.921 823.467 753.465 827.113C753.465 830.759 752.326 833.266 750.047 834.633C747.768 836 744.35 836.684 739.793 836.684C735.236 836.684 729.767 836.456 723.387 836C718.829 819.594 714.728 800.453 711.082 778.578C707.892 756.247 704.93 732.549 702.195 707.484C699.461 681.964 696.727 655.759 693.992 628.871C691.714 601.983 689.435 575.323 687.156 548.891C684.878 522.458 682.371 497.165 679.637 473.012C676.902 448.858 673.712 426.983 670.066 407.387H657.762Z" fill="#FFD166"/>
</g>
<g filter="url(#filter2_d_0_1)">
<path d="M658.479 350.882C656.558 337.209 666.084 324.568 679.757 322.646L688.058 321.479C701.731 319.558 714.372 329.084 716.294 342.757L718.103 355.63L660.289 363.755L658.479 350.882Z" fill="#FF8686"/>
</g>
<g filter="url(#filter3_d_0_1)">
<path d="M660 362.13L718.065 355L719.259 364.718L661.193 371.848L660 362.13Z" fill="#B0BEC5"/>
</g>
<path opacity="0.3" d="M717.568 365L713.012 399.537L712 413.552V443.583L713.012 475.117L716.556 514.659L719.593 538.684L722.123 561.709L727.185 597.247L731.741 628.78L737.815 671.325L742.877 707.363L747.938 750.409L750.469 795.457V807.47V813.476L751.988 819.482L753 827.992L751.988 833.497L748.951 836" stroke="black" stroke-width="3"/>
<path opacity="0.6" d="M663 371L671.5 406.5L678.5 451L683.5 493L687 530L688.5 547L692.5 594.5L696.5 639.5L703 701.5L706 728.5L713 782.5L725 835L727.5 835.5" stroke="white" stroke-width="3"/>
<path d="M743.442 869.537C743.094 870.88 741.267 871.072 740.648 869.831L722.097 832.665C721.629 831.729 722.241 830.613 723.282 830.504L752.252 827.459C753.293 827.349 754.124 828.313 753.861 829.327L743.442 869.537Z" fill="#FFF6E1"/>
<path d="M743.887 878.383C743.732 879.401 742.325 879.549 741.962 878.585L733.016 854.833C732.785 854.22 733.196 853.554 733.847 853.486L746.607 852.145C747.258 852.076 747.798 852.642 747.7 853.289L743.887 878.383Z" fill="black"/>
<defs>
<filter id="filter0_d_0_1" x="162.075" y="210.45" width="440.756" height="596.225" filterUnits="userSpaceOnUse" color-interpolation-filters="sRGB">
<feFlood flood-opacity="0" result="BackgroundImageFix"/>
<feColorMatrix in="SourceAlpha" type="matrix" values="0 0 0 0 0 0 0 0 0 0 0 0 0 0 0 0 0 0 127 0" result="hardAlpha"/>
<feOffset dx="13" dy="12"/>
<feGaussianBlur stdDeviation="7.65"/>
<feComposite in2="hardAlpha" operator="out"/>
<feColorMatrix type="matrix" values="0 0 0 0 0 0 0 0 0 0 0 0 0 0 0 0 0 0 0.25 0"/>
<feBlend mode="normal" in2="BackgroundImageFix" result="effect1_dropShadow_0_1"/>
<feBlend mode="normal" in="SourceGraphic" in2="effect1_dropShadow_0_1" result="shape"/>
</filter>
<filter id="filter1_d_0_1" x="456.203" y="336.977" width="488.566" height="507.707" filterUnits="userSpaceOnUse" color-interpolation-filters="sRGB">
<feFlood flood-opacity="0" result="BackgroundImageFix"/>
<feColorMatrix in="SourceAlpha" type="matrix" values="0 0 0 0 0 0 0 0 0 0 0 0 0 0 0 0 0 0 127 0" result="hardAlpha"/>
<feOffset dy="4"/>
<feGaussianBlur stdDeviation="2"/>
<feComposite in2="hardAlpha" operator="out"/>
<feColorMatrix type="matrix" values="0 0 0 0 0 0 0 0 0 0 0 0 0 0 0 0 0 0 0.25 0"/>
<feBlend mode="normal" in2="BackgroundImageFix" result="effect1_dropShadow_0_1"/>
<feBlend mode="normal" in="SourceGraphic" in2="effect1_dropShadow_0_1" result="shape"/>
</filter>
<filter id="filter2_d_0_1" x="656.233" y="321.233" width="67.8702" height="50.5226" filterUnits="userSpaceOnUse" color-interpolation-filters="sRGB">
<feFlood flood-opacity="0" result="BackgroundImageFix"/>
<feColorMatrix in="SourceAlpha" type="matrix" values="0 0 0 0 0 0 0 0 0 0 0 0 0 0 0 0 0 0 127 0" result="hardAlpha"/>
<feOffset dx="2" dy="4"/>
<feGaussianBlur stdDeviation="2"/>
<feComposite in2="hardAlpha" operator="out"/>
<feColorMatrix type="matrix" values="0 0 0 0 0 0 0 0 0 0 0 0 0 0 0 0 0 0 0.25 0"/>
<feBlend mode="normal" in2="BackgroundImageFix" result="effect1_dropShadow_0_1"/>
<feBlend mode="normal" in="SourceGraphic" in2="effect1_dropShadow_0_1" result="shape"/>
</filter>
<filter id="filter3_d_0_1" x="660" y="352" width="67.2587" height="24.8478" filterUnits="userSpaceOnUse" color-interpolation-filters="sRGB">
<feFlood flood-opacity="0" result="BackgroundImageFix"/>
<feColorMatrix in="SourceAlpha" type="matrix" values="0 0 0 0 0 0 0 0 0 0 0 0 0 0 0 0 0 0 127 0" result="hardAlpha"/>
<feOffset dx="4" dy="1"/>
<feGaussianBlur stdDeviation="2"/>
<feComposite in2="hardAlpha" operator="out"/>
<feColorMatrix type="matrix" values="0 0 0 0 0 0 0 0 0 0 0 0 0 0 0 0 0 0 0.25 0"/>
<feBlend mode="normal" in2="BackgroundImageFix" result="effect1_dropShadow_0_1"/>
<feBlend mode="normal" in="SourceGraphic" in2="effect1_dropShadow_0_1" result="shape"/>
</filter>
</defs>
</svg>
